<svg width="16" height="16" viewBox="0 0 16 16" fill="none" xmlns="http://www.w3.org/2000/svg">
<path fill-rule="evenodd" clip-rule="evenodd" fill="#89d185" d="m 8.6,0.999985 c 1.6,0.100005 3.1,0.900005 4.2,2.000005 1.3,1.4 2,3.1 2,5.1 0,1.6 -0.6,3.10001 -1.6,4.40001 -1,1.2 -2.4,2.1 -4,2.4 C 7.6,15.2 6,15 4.6,14.2 3.2,13.4 2.1,12.2 1.5,10.7 0.899997,9.19999 0.799997,7.49999 1.3,5.99999 c 0.5,-1.6 1.4,-2.9 2.8,-3.8 1.3,-0.9 2.9,-1.300005 4.5,-1.200005 z M 9.1,13.9 c 1.3,-0.3 2.5,-1 3.4,-2.1 0.8,-1.1 1.3,-2.40001 1.2,-3.80001 0,-1.6 -0.6,-3.2 -1.7,-4.3 -1,-1 -2.2,-1.6 -3.6,-1.7 -1.3,-0.1 -2.7,0.2 -3.8,1 -1.1,0.8 -1.9,1.9 -2.3,3.3 -0.4,1.3 -0.4,2.7 0.2,4.00001 0.6,1.3 1.5,2.3 2.7,3 1.2,0.7 2.6,0.9 3.9,0.6 z"/>
<path fill-rule="evenodd" clip-rule="evenodd" fill="#89d185" d="m 6.0033478,10.720201 0.7,0.7 5.5000102,-5.6999999 -0.7,-0.7 -4.8000102,4.9999999 -2.4,-2.4999999 -0.7,0.7 z"/>
</svg>
