<svg width="16" height="16" viewBox="0 0 16 16" fill="none" xmlns="http://www.w3.org/2000/svg">
<path fill-rule="evenodd" clip-rule="evenodd" fill="#c5c5c5" d="m 8.6,0.999985 c 1.6,0.100005 3.1,0.900005 4.2,2.000005 1.3,1.4 2,3.1 2,5.1 0,1.6 -0.6,3.10001 -1.6,4.40001 -1,1.2 -2.4,2.1 -4,2.4 C 7.6,15.2 6,15 4.6,14.2 3.2,13.4 2.1,12.2 1.5,10.7 0.899997,9.19999 0.799997,7.49999 1.3,5.99999 c 0.5,-1.6 1.4,-2.9 2.8,-3.8 1.3,-0.9 2.9,-1.300005 4.5,-1.200005 z M 9.1,13.9 c 1.3,-0.3 2.5,-1 3.4,-2.1 0.8,-1.1 1.3,-2.40001 1.2,-3.80001 0,-1.6 -0.6,-3.2 -1.7,-4.3 -1,-1 -2.2,-1.6 -3.6,-1.7 -1.3,-0.1 -2.7,0.2 -3.8,1 -1.1,0.8 -1.9,1.9 -2.3,3.3 -0.4,1.3 -0.4,2.7 0.2,4.00001 0.6,1.3 1.5,2.3 2.7,3 1.2,0.7 2.6,0.9 3.9,0.6 z"/>
<path fill-rule="evenodd" clip-rule="evenodd" fill="#c5c5c5" d="m 9.4732114,5.084194 c -0.17277,-0.1799 -0.38029,-0.32271 -0.6099896,-0.41992 -0.289,-0.11571 -0.59883,-0.17023 -0.90997,-0.16003 -0.30199,-0.00549 -0.60178,0.05247 -0.88001,0.17004 -0.23856,0.10025 -0.45074,0.2542 -0.61999,0.44995 -0.16561,0.18012 -0.29467,0.39068 -0.38001,0.62 -0.07934,0.23294 -0.12974,0.47472 -0.15002,0.71997 h 1.22998 c 0.00727,-0.21501 0.09675,-0.41897 0.25,-0.56995 0.07195,-0.07489 0.15926,-0.13329 0.25592,-0.17126 0.09666,-0.03798 0.20039,-0.0546 0.30408,-0.04871 0.08944,-0.01422 0.18058,-0.01422 0.27002,0 0.08216,0.03107 0.15708,0.07874 0.22003,0.14001 0.06947,0.06012 0.12419,0.13536 0.15997,0.21997 0.04097,0.09464 0.06141,0.19682 0.06,0.29993 3.7e-4,0.17271 -0.03717,0.34339 -0.10999,0.5 -0.07262,0.16289 -0.1632,0.31726 -0.27001,0.46008 l -0.34998,0.41993 c -0.12,0.13 -0.24004,0.27003 -0.35004,0.41003 -0.10666,0.13935 -0.19719,0.29026 -0.26996,0.44995 -0.06937,0.15739 -0.10354,0.32804 -0.10003,0.5 v 0.6600402 h 1.20001 V 9.244234 c 0.00339,-0.14667 0.04105,-0.29055 0.10999,-0.42005 0.08184,-0.14417 0.17552,-0.28122 0.28002,-0.40991 l 0.3599896,-0.44006 c 0.13106,-0.15141 0.25134,-0.31178 0.35999,-0.47998 0.11492,-0.17152 0.20895,-0.35622 0.28002,-0.55005 0.07293,-0.20549 0.11012,-0.42185 0.10999,-0.6399 0.0018,-0.22718 -0.03193,-0.45328 -0.09998,-0.67004 -0.07551,-0.20649 -0.19496,-0.39419 -0.35003,-0.55005 z m -2.2499896,5.25002 h 1.17 v 1.17004 h -1.17 z"/>
</svg>
