<?xml version="1.0" encoding="UTF-8" standalone="no"?>
<svg
   xmlns:dc="http://purl.org/dc/elements/1.1/"
   xmlns:cc="http://creativecommons.org/ns#"
   xmlns:rdf="http://www.w3.org/1999/02/22-rdf-syntax-ns#"
   xmlns:svg="http://www.w3.org/2000/svg"
   xmlns="http://www.w3.org/2000/svg"
   xmlns:sodipodi="http://sodipodi.sourceforge.net/DTD/sodipodi-0.dtd"
   xmlns:inkscape="http://www.inkscape.org/namespaces/inkscape"
   viewBox="0 0 16 16"
   version="1.1"
   id="svg12"
   sodipodi:docname="Empty_inverse_16x.svg"
   inkscape:version="0.92.4 (5da689c313, 2019-01-14)">
  <metadata
     id="metadata18">
    <rdf:RDF>
      <cc:Work
         rdf:about="">
        <dc:format>image/svg+xml</dc:format>
        <dc:type
           rdf:resource="http://purl.org/dc/dcmitype/StillImage" />
      </cc:Work>
    </rdf:RDF>
  </metadata>
  <defs
     id="defs16" />
  <sodipodi:namedview
     pagecolor="#ffffff"
     bordercolor="#666666"
     borderopacity="1"
     objecttolerance="10"
     gridtolerance="10"
     guidetolerance="10"
     inkscape:pageopacity="0"
     inkscape:pageshadow="2"
     inkscape:window-width="1508"
     inkscape:window-height="912"
     id="namedview14"
     showgrid="false"
     inkscape:zoom="29.5"
     inkscape:cx="8.1376756"
     inkscape:cy="6.814464"
     inkscape:window-x="287"
     inkscape:window-y="1239"
     inkscape:window-maximized="0"
     inkscape:current-layer="svg12" />
  <style
     id="style2">.icon-canvas-transparent{opacity:0;fill:#252526}.icon-vs-out{fill:#252526}.icon-vs-bg{fill:#c5c5c5}.icon-vs-fg{fill:#2b282e}.icon-vs-action-blue{fill:#75beff}</style>
  <path
     class="icon-canvas-transparent"
     d="M16 16H0V0h16v16z"
     id="canvas" />
  <path
     class="icon-vs-out"
     d="M2.879 14L1 12.121V3.879L2.879 2h10.242L15 3.879v8.242L13.121 14H2.879z"
     id="outline" />
  <path
     class="icon-vs-fg"
     d="M 12.293,4 H 3.707 L 3,4.707 v 6.586 L 3.707,12 h 8.586 L 13,11.293 V 4.707 Z"
     id="iconFg"
     inkscape:connector-curvature="0"
     style="fill:#2b282e"
     sodipodi:nodetypes="ccccccccc" />
  <g
     id="iconBg">
    <path
       class="icon-vs-bg"
       d="M12.707 13H3.293L2 11.707V4.293L3.293 3h9.414L14 4.293v7.414L12.707 13zm-9-1h8.586l.707-.707V4.707L12.293 4H3.707L3 4.707v6.586l.707.707z"
       id="path7" />
  </g>
</svg>
